# Blender 3.6.8
# www.blender.org
mtllib P_cone001.mtl
o P_Cone
v 0.008429 -0.000000 -1.000000
v -0.993916 0.000000 -0.007350
v 0.008429 0.195090 -0.980785
v -0.993916 0.001434 -0.007209
v 0.008429 0.382683 -0.923880
v -0.993916 0.002813 -0.006791
v 0.008429 0.555570 -0.831470
v -0.993916 0.004084 -0.006111
v 0.008429 0.707107 -0.707107
v -0.993916 0.005197 -0.005197
v 0.008429 0.831470 -0.555570
v -0.993916 0.006111 -0.004084
v 0.008429 0.923880 -0.382683
v -0.993916 0.006791 -0.002813
v 0.008429 0.980785 -0.195090
v -0.993916 0.007209 -0.001434
v 0.008429 1.000000 0.000000
v -0.993916 0.007350 -0.000000
v 0.008429 0.980785 0.195090
v -0.993916 0.007209 0.001434
v 0.008429 0.923880 0.382683
v -0.993916 0.006791 0.002813
v 0.008429 0.831470 0.555570
v -0.993916 0.006111 0.004083
v 0.008429 0.707107 0.707107
v -0.993916 0.005197 0.005197
v 0.008429 0.555570 0.831470
v -0.993916 0.004084 0.006111
v 0.008429 0.382683 0.923880
v -0.993916 0.002813 0.006791
v 0.008429 0.195090 0.980785
v -0.993916 0.001434 0.007209
v 0.008429 -0.000000 1.000000
v -0.993916 0.000000 0.007350
v 0.008429 -0.195090 0.980785
v -0.993916 -0.001434 0.007209
v 0.008429 -0.382683 0.923880
v -0.993916 -0.002813 0.006791
v 0.008429 -0.555570 0.831470
v -0.993916 -0.004083 0.006111
v 0.008429 -0.707107 0.707107
v -0.993916 -0.005197 0.005197
v 0.008429 -0.831470 0.555570
v -0.993916 -0.006111 0.004083
v 0.008429 -0.923880 0.382683
v -0.993916 -0.006791 0.002813
v 0.008429 -0.980785 0.195090
v -0.993916 -0.007209 0.001434
v 0.008429 -1.000000 0.000000
v -0.993916 -0.007350 -0.000000
v 0.008429 -0.980785 -0.195090
v -0.993916 -0.007209 -0.001434
v 0.008429 -0.923880 -0.382683
v -0.993916 -0.006791 -0.002813
v 0.008429 -0.831470 -0.555570
v -0.993916 -0.006111 -0.004084
v 0.008429 -0.707107 -0.707107
v -0.993916 -0.005197 -0.005197
v 0.008429 -0.555570 -0.831470
v -0.993916 -0.004083 -0.006111
v 0.008429 -0.382683 -0.923880
v -0.993916 -0.002813 -0.006791
v 0.008429 -0.195090 -0.980785
v -0.993916 -0.001434 -0.007209
vn 0.7037 -0.0000 0.7105
vn 0.7037 -0.1386 0.6969
vn 0.7037 -0.2719 0.6564
vn 0.7037 -0.3948 0.5908
vn 0.7037 -0.5024 0.5024
vn 0.7037 -0.5908 0.3948
vn 0.7037 -0.6564 0.2719
vn 0.7037 -0.6969 0.1386
vn 0.7037 -0.7105 -0.0000
vn 0.7037 -0.6969 -0.1386
vn 0.7037 -0.6564 -0.2719
vn 0.7037 -0.5908 -0.3948
vn 0.7037 -0.5024 -0.5024
vn 0.7037 -0.3948 -0.5908
vn 0.7037 -0.2719 -0.6564
vn 0.7037 -0.1386 -0.6969
vn 0.7037 -0.0000 -0.7105
vn 0.7037 0.1386 -0.6969
vn 0.7037 0.2719 -0.6564
vn 0.7037 0.3948 -0.5908
vn 0.7037 0.5024 -0.5024
vn 0.7037 0.5908 -0.3948
vn 0.7037 0.6564 -0.2719
vn 0.7037 0.6969 -0.1386
vn 0.7037 0.7105 -0.0000
vn 0.7037 0.6969 0.1386
vn 0.7037 0.6564 0.2719
vn 0.7037 0.5908 0.3948
vn 0.7037 0.5024 0.5024
vn 0.7037 0.3948 0.5908
vn 0.7037 0.2719 0.6564
vn 0.7037 0.1386 0.6969
vt 1.000000 0.000000
vt 0.968750 0.000000
vt 0.968750 1.000000
vt 1.000000 1.000000
vt 0.937500 0.000000
vt 0.937500 1.000000
vt 0.906250 0.000000
vt 0.906250 1.000000
vt 0.875000 0.000000
vt 0.875000 1.000000
vt 0.843750 0.000000
vt 0.843750 1.000000
vt 0.812500 0.000000
vt 0.812500 1.000000
vt 0.781250 0.000000
vt 0.781250 1.000000
vt 0.750000 0.000000
vt 0.750000 1.000000
vt 0.718750 0.000000
vt 0.718750 1.000000
vt 0.687500 0.000000
vt 0.687500 1.000000
vt 0.656250 0.000000
vt 0.656250 1.000000
vt 0.625000 0.000000
vt 0.625000 1.000000
vt 0.593750 0.000000
vt 0.593750 1.000000
vt 0.562500 0.000000
vt 0.562500 1.000000
vt 0.531250 0.000000
vt 0.531250 1.000000
vt 0.500000 0.000000
vt 0.500000 1.000000
vt 0.468750 0.000000
vt 0.468750 1.000000
vt 0.437500 0.000000
vt 0.437500 1.000000
vt 0.406250 0.000000
vt 0.406250 1.000000
vt 0.375000 0.000000
vt 0.375000 1.000000
vt 0.343750 0.000000
vt 0.343750 1.000000
vt 0.312500 0.000000
vt 0.312500 1.000000
vt 0.281250 0.000000
vt 0.281250 1.000000
vt 0.250000 0.000000
vt 0.250000 1.000000
vt 0.218750 0.000000
vt 0.218750 1.000000
vt 0.187500 0.000000
vt 0.187500 1.000000
vt 0.156250 0.000000
vt 0.156250 1.000000
vt 0.125000 0.000000
vt 0.125000 1.000000
vt 0.093750 0.000000
vt 0.093750 1.000000
vt 0.062500 0.000000
vt 0.062500 1.000000
vt 0.031250 0.000000
vt 0.031250 1.000000
vt 0.000000 0.000000
vt 0.000000 1.000000
s 1
f 1/1/1 3/2/2 4/3/2 2/4/1
f 3/2/2 5/5/3 6/6/3 4/3/2
f 5/5/3 7/7/4 8/8/4 6/6/3
f 7/7/4 9/9/5 10/10/5 8/8/4
f 9/9/5 11/11/6 12/12/6 10/10/5
f 11/11/6 13/13/7 14/14/7 12/12/6
f 13/13/7 15/15/8 16/16/8 14/14/7
f 15/15/8 17/17/9 18/18/9 16/16/8
f 17/17/9 19/19/10 20/20/10 18/18/9
f 19/19/10 21/21/11 22/22/11 20/20/10
f 21/21/11 23/23/12 24/24/12 22/22/11
f 23/23/12 25/25/13 26/26/13 24/24/12
f 25/25/13 27/27/14 28/28/14 26/26/13
f 27/27/14 29/29/15 30/30/15 28/28/14
f 29/29/15 31/31/16 32/32/16 30/30/15
f 31/31/16 33/33/17 34/34/17 32/32/16
f 33/33/17 35/35/18 36/36/18 34/34/17
f 35/35/18 37/37/19 38/38/19 36/36/18
f 37/37/19 39/39/20 40/40/20 38/38/19
f 39/39/20 41/41/21 42/42/21 40/40/20
f 41/41/21 43/43/22 44/44/22 42/42/21
f 43/43/22 45/45/23 46/46/23 44/44/22
f 45/45/23 47/47/24 48/48/24 46/46/23
f 47/47/24 49/49/25 50/50/25 48/48/24
f 49/49/25 51/51/26 52/52/26 50/50/25
f 51/51/26 53/53/27 54/54/27 52/52/26
f 53/53/27 55/55/28 56/56/28 54/54/27
f 55/55/28 57/57/29 58/58/29 56/56/28
f 57/57/29 59/59/30 60/60/30 58/58/29
f 59/59/30 61/61/31 62/62/31 60/60/30
f 61/61/31 63/63/32 64/64/32 62/62/31
f 63/63/32 1/65/1 2/66/1 64/64/32
